<?xml version="1.0" standalone="no"?>
<!DOCTYPE svg PUBLIC "-//W3C//DTD SVG 20010904//EN"
 "http://www.w3.org/TR/2001/REC-SVG-20010904/DTD/svg10.dtd">
<svg version="1.0" xmlns="http://www.w3.org/2000/svg"
 width="500.000000pt" height="500.000000pt" viewBox="0 0 500.000000 500.000000"
 preserveAspectRatio="xMidYMid meet">

<g transform="translate(0.000000,500.000000) scale(0.100000,-0.100000)"
fill="#000000" stroke="none">
<path d="M2223 4688 c-1266 -1428 -1596 -1800 -1657 -1872 -166 -196 -288
-454 -346 -731 -27 -130 -38 -403 -20 -541 16 -132 69 -339 114 -443 47 -112
117 -232 132 -229 7 2 12 -1 11 -7 -1 -5 -6 -9 -10 -7 -10 3 7 -30 51 -96 19
-28 39 -52 44 -52 4 0 3 9 -4 20 -7 11 -16 20 -19 20 -4 0 -5 9 -2 20 5 19 7
20 23 5 17 -16 19 -15 23 7 4 20 4 20 6 -5 1 -24 -2 -27 -19 -22 -15 5 -18 3
-14 -8 3 -8 13 -14 22 -12 9 2 17 4 17 5 0 9 35 5 39 -5 3 -9 0 -12 -10 -8
-19 7 -18 -11 2 -27 8 -8 20 -22 25 -32 7 -14 6 -18 -6 -18 -9 0 -14 4 -11 8
3 5 -9 23 -27 40 -30 29 -33 30 -34 11 -1 -14 3 -19 12 -15 15 6 29 -20 15
-29 -6 -4 -10 -1 -10 6 0 7 -3 10 -6 6 -3 -3 2 -16 11 -29 13 -17 16 -18 11
-5 -4 11 -2 17 5 15 6 -2 11 -8 11 -13 0 -19 19 -33 37 -28 12 3 20 -2 24 -16
3 -13 1 -19 -5 -14 -6 3 -8 1 -4 -5 3 -6 1 -12 -6 -15 -7 -2 -2 -2 11 0 18 3
22 0 17 -12 -4 -10 -2 -14 5 -9 8 4 9 -1 4 -15 -3 -12 -3 -21 2 -20 20 4 24
-2 12 -18 -8 -9 -9 -14 -2 -10 7 4 20 -5 33 -23 13 -18 17 -30 9 -30 -9 0 -8
-4 1 -15 7 -8 17 -12 23 -8 6 3 7 1 3 -6 -4 -6 0 -14 8 -17 9 -3 14 -10 11
-14 -9 -15 141 -146 222 -193 96 -56 232 -107 370 -139 97 -22 107 -22 1077
-25 1065 -4 1077 -4 1271 52 50 14 145 53 212 85 104 51 133 71 195 133 87 86
103 106 111 138 3 13 15 34 27 46 11 12 20 29 20 38 0 8 5 15 11 15 5 0 7 5 4
10 -3 6 1 10 9 10 10 0 13 -6 10 -17 -4 -10 3 -4 13 12 11 17 16 32 11 33 -4
2 -5 9 -2 14 4 7 2 8 -4 4 -6 -4 -9 -13 -5 -21 3 -10 -1 -15 -13 -15 -11 0
-15 4 -9 8 6 4 12 16 13 27 6 33 48 100 61 97 6 -1 14 4 17 12 3 8 12 12 21 9
12 -5 12 -7 1 -14 -9 -6 -9 -9 -1 -9 19 0 26 20 9 26 -9 3 -14 10 -11 14 3 5
-3 13 -12 19 -10 6 -13 11 -6 11 6 0 9 9 5 22 -3 14 -1 19 6 14 6 -3 14 -1 18
5 4 8 9 7 15 -2 11 -17 12 -55 2 -45 -5 4 -8 12 -8 17 0 15 -19 10 -21 -6 -1
-8 4 -15 12 -15 8 0 13 -6 11 -12 -1 -7 5 -13 13 -13 10 0 14 8 12 22 -2 12 3
25 9 29 9 5 10 2 6 -9 -9 -24 0 -21 14 4 8 15 8 19 0 15 -6 -4 -11 -2 -11 4 0
6 -4 8 -10 5 -16 -10 -12 11 5 25 13 11 14 10 9 -3 -8 -22 25 -16 38 8 8 14 8
16 -3 10 -8 -5 -3 3 11 17 14 15 34 41 44 59 17 29 17 32 2 26 -10 -4 -15 -3
-11 3 3 6 12 10 20 10 11 0 32 38 26 48 -1 1 5 10 14 18 8 9 15 22 15 30 0 8
6 25 14 37 23 35 76 184 97 276 92 384 47 799 -123 1149 -87 179 -156 264
-788 977 -337 380 -778 876 -979 1103 -201 226 -369 412 -373 412 -4 0 -128
-136 -275 -302z m787 -1098 c278 -407 532 -779 565 -827 89 -131 530 -774 602
-879 76 -111 155 -270 190 -383 26 -83 26 -83 9 -140 -59 -189 -214 -362 -415
-461 -181 -90 -290 -109 -671 -120 -390 -11 -1187 -11 -1580 0 -336 10 -421
21 -582 80 -207 75 -377 221 -462 395 -59 122 -64 151 -37 242 12 43 42 119
65 169 42 89 76 142 277 437 680 996 1525 2227 1529 2226 3 0 232 -333 510
-739z m-2423 -2817 c-3 -10 -5 -4 -5 12 0 17 2 24 5 18 2 -7 2 -21 0 -30z
m3823 -50 c0 -5 -5 -15 -10 -23 -8 -12 -10 -11 -10 8 0 12 5 22 10 22 6 0 10
-3 10 -7z m-3770 -87 c0 -11 -19 -15 -25 -6 -3 5 1 10 9 10 9 0 16 -2 16 -4z"/>
<path d="M2250 2685 l0 -265 -270 0 -270 0 0 -250 0 -250 268 -2 267 -3 3
-267 2 -268 250 0 250 0 0 270 0 270 265 0 265 0 1 233 c0 127 2 240 4 250 3
16 -15 17 -266 17 l-269 0 0 265 0 265 -250 0 -250 0 0 -265z"/>
<path d="M4356 634 c-5 -14 -4 -15 9 -4 17 14 19 20 6 20 -5 0 -12 -7 -15 -16z"/>
<path d="M4386 624 c-24 -24 -19 -30 7 -8 12 10 24 20 26 21 2 2 -1 3 -7 3 -6
0 -18 -7 -26 -16z"/>
<path d="M4270 455 c-7 -9 -11 -18 -8 -20 3 -3 11 1 18 10 7 9 11 18 8 20 -3
3 -11 -1 -18 -10z"/>
</g>
</svg>
